<svg width="39" height="23" viewBox="0 0 39 23" fill="none" xmlns="http://www.w3.org/2000/svg">
<path fill-rule="evenodd" clip-rule="evenodd" d="M31.903 0H30.223V10.052H31.903V8.232L33.499 6.916L36.607 10.052H38.763L34.703 5.922L38.609 2.702H36.257L31.903 6.384V0ZM14.2684 2.562C15.4584 2.562 16.4524 2.926 17.2504 3.64C18.0484 4.368 18.4544 5.278 18.4544 6.384C18.4544 7.504 18.0484 8.414 17.2504 9.128C16.4524 9.856 15.4584 10.206 14.2684 10.206C13.0644 10.206 12.0564 9.856 11.2584 9.128C10.4604 8.414 10.0684 7.504 10.0684 6.384C10.0684 5.278 10.4604 4.368 11.2584 3.64C12.0564 2.926 13.0644 2.562 14.2684 2.562ZM14.2684 4.004C13.4984 4.004 12.8684 4.228 12.3924 4.662C11.9164 5.11 11.6784 5.684 11.6784 6.384C11.6784 7.098 11.9164 7.672 12.3924 8.106C12.8684 8.554 13.4984 8.764 14.2684 8.764C15.0244 8.764 15.6404 8.554 16.1164 8.106C16.5924 7.672 16.8444 7.098 16.8444 6.384C16.8444 5.684 16.5924 5.11 16.1164 4.662C15.6404 4.228 15.0244 4.004 14.2684 4.004ZM24.1559 2.562C25.3459 2.562 26.3399 2.926 27.1379 3.64C27.9359 4.368 28.3419 5.278 28.3419 6.384C28.3419 7.504 27.9359 8.414 27.1379 9.128C26.3399 9.856 25.3459 10.206 24.1559 10.206C22.9519 10.206 21.9439 9.856 21.1459 9.128C20.3479 8.414 19.9559 7.504 19.9559 6.384C19.9559 5.278 20.3479 4.368 21.1459 3.64C21.9439 2.926 22.9519 2.562 24.1559 2.562ZM24.1559 4.004C23.3859 4.004 22.7559 4.228 22.2799 4.662C21.8039 5.11 21.5659 5.684 21.5659 6.384C21.5659 7.098 21.8039 7.672 22.2799 8.106C22.7559 8.554 23.3859 8.764 24.1559 8.764C24.9119 8.764 25.5279 8.554 26.0039 8.106C26.4799 7.672 26.7319 7.098 26.7319 6.384C26.7319 5.684 26.4799 5.11 26.0039 4.662C25.5279 4.228 24.9119 4.004 24.1559 4.004ZM7.448 21.128C8.19 20.414 8.568 19.504 8.568 18.384C8.568 17.278 8.19 16.368 7.448 15.64C6.692 14.926 5.726 14.562 4.536 14.562C3.934 14.562 3.388 14.66 2.884 14.856C2.38 15.052 1.988 15.304 1.68 15.64V12H0V22.052H1.68V21.128C1.988 21.464 2.38 21.73 2.884 21.926C3.388 22.122 3.934 22.206 4.536 22.206C5.726 22.206 6.692 21.856 7.448 21.128ZM2.366 16.648C2.884 16.2 3.528 15.962 4.298 15.962C5.082 15.962 5.712 16.186 6.216 16.634C6.72 17.082 6.972 17.656 6.972 18.384C6.972 19.112 6.72 19.7 6.216 20.148C5.712 20.596 5.082 20.806 4.298 20.806C3.528 20.806 2.884 20.582 2.366 20.134C1.848 19.686 1.596 19.112 1.596 18.44V18.328C1.596 17.656 1.848 17.096 2.366 16.648ZM4.54986 3.99C3.76586 3.99 3.12186 4.214 2.63186 4.648C2.14186 5.096 1.90386 5.67 1.90386 6.384C1.90386 7.112 2.14186 7.686 2.63186 8.12C3.12186 8.568 3.76586 8.778 4.54986 8.778C5.10986 8.778 5.61386 8.624 6.06186 8.316C6.50986 8.008 6.80386 7.63 6.97186 7.154L8.30186 7.952C8.02186 8.624 7.54586 9.156 6.87386 9.576C6.18786 9.996 5.41786 10.206 4.56386 10.206C3.33186 10.206 2.32386 9.856 1.51186 9.128C0.699857 8.414 0.293858 7.504 0.293858 6.384C0.293858 5.278 0.699857 4.368 1.51186 3.64C2.32386 2.926 3.33186 2.562 4.56386 2.562C5.43186 2.562 6.20186 2.786 6.88786 3.206C7.57386 3.626 8.04986 4.172 8.31586 4.844L6.97186 5.614C6.80386 5.152 6.50986 4.76 6.06186 4.452C5.61386 4.144 5.10986 3.99 4.54986 3.99ZM31.903 12H30.223V22.052H31.903V20.232L33.499 18.916L36.607 22.052H38.763L34.703 17.922L38.609 14.702H36.257L31.903 18.384V12ZM14.2684 14.562C15.4584 14.562 16.4524 14.926 17.2504 15.64C18.0484 16.368 18.4544 17.278 18.4544 18.384C18.4544 19.504 18.0484 20.414 17.2504 21.128C16.4524 21.856 15.4584 22.206 14.2684 22.206C13.0644 22.206 12.0564 21.856 11.2584 21.128C10.4604 20.414 10.0684 19.504 10.0684 18.384C10.0684 17.278 10.4604 16.368 11.2584 15.64C12.0564 14.926 13.0644 14.562 14.2684 14.562ZM14.2684 16.004C13.4984 16.004 12.8684 16.228 12.3924 16.662C11.9164 17.11 11.6784 17.684 11.6784 18.384C11.6784 19.098 11.9164 19.672 12.3924 20.106C12.8684 20.554 13.4984 20.764 14.2684 20.764C15.0244 20.764 15.6404 20.554 16.1164 20.106C16.5924 19.672 16.8444 19.098 16.8444 18.384C16.8444 17.684 16.5924 17.11 16.1164 16.662C15.6404 16.228 15.0244 16.004 14.2684 16.004ZM24.1559 14.562C25.3459 14.562 26.3399 14.926 27.1379 15.64C27.9359 16.368 28.3419 17.278 28.3419 18.384C28.3419 19.504 27.9359 20.414 27.1379 21.128C26.3399 21.856 25.3459 22.206 24.1559 22.206C22.9519 22.206 21.9439 21.856 21.1459 21.128C20.3479 20.414 19.9559 19.504 19.9559 18.384C19.9559 17.278 20.3479 16.368 21.1459 15.64C21.9439 14.926 22.9519 14.562 24.1559 14.562ZM24.1559 16.004C23.3859 16.004 22.7559 16.228 22.2799 16.662C21.8039 17.11 21.5659 17.684 21.5659 18.384C21.5659 19.098 21.8039 19.672 22.2799 20.106C22.7559 20.554 23.3859 20.764 24.1559 20.764C24.9119 20.764 25.5279 20.554 26.0039 20.106C26.4799 19.672 26.7319 19.098 26.7319 18.384C26.7319 17.684 26.4799 17.11 26.0039 16.662C25.5279 16.228 24.9119 16.004 24.1559 16.004Z" fill="white"/>
</svg>
